<svg width="18" height="18" viewBox="0 0 18 18" fill="none" xmlns="http://www.w3.org/2000/svg">
<path d="M7.95221 3.2436C8.29088 3.19353 8.64026 3.16667 9.0001 3.16667C13.2543 3.16667 16.0458 6.9207 16.9837 8.40569C17.0972 8.58542 17.1539 8.67528 17.1857 8.81389C17.2096 8.91799 17.2095 9.08222 17.1857 9.18631C17.1539 9.32492 17.0967 9.41538 16.9824 9.59631C16.7325 9.99179 16.3516 10.5476 15.8468 11.1504M4.60336 4.59586C2.80163 5.81808 1.57846 7.51615 1.01734 8.4044C0.903327 8.58489 0.846318 8.67514 0.814538 8.81373C0.79067 8.91783 0.79066 9.08203 0.814517 9.18613C0.84628 9.32473 0.903032 9.41459 1.01653 9.59432C1.95437 11.0793 4.74593 14.8333 9.0001 14.8333C10.7154 14.8333 12.193 14.223 13.4071 13.3972M1.5001 1.5L16.5001 16.5M7.23233 7.23223C6.77992 7.68464 6.5001 8.30964 6.5001 9C6.5001 10.3807 7.61939 11.5 9.0001 11.5C9.69046 11.5 10.3155 11.2202 10.7679 10.7678" stroke="white" stroke-width="1.2" stroke-linecap="round" stroke-linejoin="round"/>
</svg>
