<svg width="1440" height="948" viewBox="0 0 1440 948" fill="none" xmlns="http://www.w3.org/2000/svg">
<g clip-path="url(#clip0_2038_135)">
<path d="M713.806 -10.379L713.805 947.582" stroke="#ECF15E" stroke-opacity="0.12"/>
<path d="M791.501 -10.5962L1245.93 921.124" stroke="#ECF15E" stroke-opacity="0.12"/>
<path d="M210.375 860.426L664.804 -71.2906" stroke="#ECF15E" stroke-opacity="0.12"/>
<path d="M951.343 -10.7916L1451.64 326.664" stroke="#ECF15E" stroke-opacity="0.12"/>
<path d="M-10.2202 316.686L490.079 -20.7701" stroke="#ECF15E" stroke-opacity="0.12"/>
<path d="M869.344 -10.7306L1420.41 540.337" stroke="#ECF15E" stroke-opacity="0.12"/>
<path d="M6.63281 539.694L557.7 -11.3741" stroke="#ECF15E" stroke-opacity="0.12"/>
<path d="M-180 11.9005H1620" stroke="#ECF15E" stroke-opacity="0.12"/>
<path d="M-180 26.6113H1620" stroke="#ECF15E" stroke-opacity="0.12"/>
<path d="M-180 42.9061H1620" stroke="#ECF15E" stroke-opacity="0.12"/>
<path d="M-180 61.5723H1620" stroke="#ECF15E" stroke-opacity="0.12"/>
<path d="M-180 84.0352H1620" stroke="#ECF15E" stroke-opacity="0.12"/>
<path d="M-180 109.98H1620" stroke="#ECF15E" stroke-opacity="0.12"/>
<path d="M-180 140.986H1620" stroke="#ECF15E" stroke-opacity="0.12"/>
<path d="M-180 178.318H1620" stroke="#ECF15E" stroke-opacity="0.12"/>
<path d="M-180 225.619H1620" stroke="#ECF15E" stroke-opacity="0.12"/>
<path d="M-180 284.15H1620" stroke="#ECF15E" stroke-opacity="0.12"/>
<path d="M-180 366.326H1620" stroke="#ECF15E" stroke-opacity="0.12"/>
<path d="M-180 488.973H1620" stroke="#ECF15E" stroke-opacity="0.12"/>
</g>
<defs>
<clipPath id="clip0_2038_135">
<rect width="1440" height="948" fill="white"/>
</clipPath>
</defs>
</svg>
